<?xml version="1.0" standalone="no"?>
<!DOCTYPE svg PUBLIC "-//W3C//DTD SVG 20010904//EN"
 "http://www.w3.org/TR/2001/REC-SVG-20010904/DTD/svg10.dtd">
<svg version="1.0" xmlns="http://www.w3.org/2000/svg"
 width="481.000000pt" height="479.000000pt" viewBox="0 0 481.000000 479.000000"
 preserveAspectRatio="xMidYMid meet">

<g transform="translate(0.000000,479.000000) scale(0.100000,-0.100000)"
fill="#000000" stroke="none">
<path d="M1015 3176 c-45 -20 -67 -50 -72 -100 -7 -57 10 -100 51 -129 l31
-22 1380 0 1380 0 31 22 c41 29 58 72 51 129 -5 51 -27 81 -74 100 -47 20
-2733 20 -2778 0z"/>
<path d="M1365 2508 c-84 -28 -101 -170 -27 -228 24 -20 47 -20 1239 -20 1194
0 1215 0 1243 20 15 11 33 33 40 50 16 39 8 115 -16 142 -45 50 -2 48 -1266
47 -746 -1 -1194 -5 -1213 -11z"/>
<path d="M2115 1839 c-11 -5 -31 -26 -45 -46 -45 -65 -25 -152 43 -190 17 -9
220 -12 851 -13 l828 0 40 40 c39 39 40 42 36 96 -4 46 -10 61 -37 87 l-31 32
-833 2 c-532 1 -839 -2 -852 -8z"/>
</g>
</svg>
